<mxfile host="65bd71144e">
    <diagram id="rsH5L2lJACvvkUvCNBuJ" name="Page-1">
        <mxGraphModel dx="4008" dy="5552" grid="1" gridSize="10" guides="1" tooltips="1" connect="1" arrows="1" fold="1" page="1" pageScale="1" pageWidth="850" pageHeight="1100" background="#FFFFFF" math="0" shadow="0">
            <root>
                <mxCell id="0"/>
                <mxCell id="1" parent="0"/>
                <mxCell id="32" style="edgeStyle=none;html=1;entryX=0.5;entryY=1;entryDx=0;entryDy=0;" parent="1" source="23" target="27" edge="1">
                    <mxGeometry relative="1" as="geometry"/>
                </mxCell>
                <mxCell id="33" style="edgeStyle=none;html=1;entryX=0.5;entryY=1;entryDx=0;entryDy=0;" parent="1" source="23" target="26" edge="1">
                    <mxGeometry relative="1" as="geometry"/>
                </mxCell>
                <mxCell id="34" style="edgeStyle=none;html=1;exitX=0;exitY=0;exitDx=0;exitDy=0;" parent="1" source="23" target="25" edge="1">
                    <mxGeometry relative="1" as="geometry"/>
                </mxCell>
                <mxCell id="35" style="edgeStyle=none;html=1;exitX=0;exitY=0.5;exitDx=0;exitDy=0;entryX=1;entryY=1;entryDx=0;entryDy=0;" parent="1" source="23" target="24" edge="1">
                    <mxGeometry relative="1" as="geometry"/>
                </mxCell>
                <mxCell id="37" style="edgeStyle=none;html=1;entryX=1;entryY=0.5;entryDx=0;entryDy=0;" parent="1" source="23" target="29" edge="1">
                    <mxGeometry relative="1" as="geometry"/>
                </mxCell>
                <mxCell id="39" style="edgeStyle=none;html=1;exitX=0.25;exitY=1;exitDx=0;exitDy=0;entryX=1;entryY=0;entryDx=0;entryDy=0;" parent="1" source="23" target="31" edge="1">
                    <mxGeometry relative="1" as="geometry"/>
                </mxCell>
                <mxCell id="23" value="User" style="rounded=0;whiteSpace=wrap;html=1;" parent="1" vertex="1">
                    <mxGeometry x="202.5" y="148" width="120" height="60" as="geometry"/>
                </mxCell>
                <mxCell id="24" value="Name" style="ellipse;whiteSpace=wrap;html=1;" parent="1" vertex="1">
                    <mxGeometry x="40" y="80" width="80" height="50" as="geometry"/>
                </mxCell>
                <mxCell id="25" value="Id&lt;br&gt;---" style="ellipse;whiteSpace=wrap;html=1;" parent="1" vertex="1">
                    <mxGeometry x="40" y="10" width="80" height="50" as="geometry"/>
                </mxCell>
                <mxCell id="26" value="Email" style="ellipse;whiteSpace=wrap;html=1;" parent="1" vertex="1">
                    <mxGeometry x="140" y="10" width="80" height="50" as="geometry"/>
                </mxCell>
                <mxCell id="27" value="Password" style="ellipse;whiteSpace=wrap;html=1;" parent="1" vertex="1">
                    <mxGeometry x="240" y="10" width="80" height="50" as="geometry"/>
                </mxCell>
                <mxCell id="28" value="SSN" style="ellipse;whiteSpace=wrap;html=1;" parent="1" vertex="1">
                    <mxGeometry x="40" y="150" width="80" height="50" as="geometry"/>
                </mxCell>
                <mxCell id="29" value="Phone" style="ellipse;whiteSpace=wrap;html=1;" parent="1" vertex="1">
                    <mxGeometry x="40" y="210" width="80" height="50" as="geometry"/>
                </mxCell>
                <mxCell id="30" value="Created At" style="ellipse;whiteSpace=wrap;html=1;" parent="1" vertex="1">
                    <mxGeometry x="40" y="280" width="80" height="50" as="geometry"/>
                </mxCell>
                <mxCell id="31" value="Updated At" style="ellipse;whiteSpace=wrap;html=1;" parent="1" vertex="1">
                    <mxGeometry x="40" y="350" width="80" height="50" as="geometry"/>
                </mxCell>
                <mxCell id="36" style="edgeStyle=none;html=1;entryX=1.039;entryY=0.614;entryDx=0;entryDy=0;entryPerimeter=0;exitX=0.012;exitY=0.64;exitDx=0;exitDy=0;exitPerimeter=0;" parent="1" source="23" target="28" edge="1">
                    <mxGeometry relative="1" as="geometry"/>
                </mxCell>
                <mxCell id="38" style="edgeStyle=none;html=1;exitX=0;exitY=1;exitDx=0;exitDy=0;entryX=1.032;entryY=0.38;entryDx=0;entryDy=0;entryPerimeter=0;" parent="1" source="23" target="30" edge="1">
                    <mxGeometry relative="1" as="geometry"/>
                </mxCell>
                <mxCell id="45" style="edgeStyle=none;html=1;entryX=0.5;entryY=1;entryDx=0;entryDy=0;" parent="1" source="40" target="44" edge="1">
                    <mxGeometry relative="1" as="geometry"/>
                </mxCell>
                <mxCell id="47" style="edgeStyle=none;html=1;entryX=0.5;entryY=1;entryDx=0;entryDy=0;" parent="1" source="40" target="41" edge="1">
                    <mxGeometry relative="1" as="geometry"/>
                </mxCell>
                <mxCell id="48" style="edgeStyle=none;html=1;exitX=1;exitY=0;exitDx=0;exitDy=0;entryX=0;entryY=1;entryDx=0;entryDy=0;" parent="1" source="40" target="42" edge="1">
                    <mxGeometry relative="1" as="geometry"/>
                </mxCell>
                <mxCell id="316" style="edgeStyle=none;html=1;entryX=0.5;entryY=1;entryDx=0;entryDy=0;" parent="1" source="40" target="315" edge="1">
                    <mxGeometry relative="1" as="geometry"/>
                </mxCell>
                <mxCell id="457" value="" style="edgeStyle=none;html=1;" parent="1" source="40" target="315" edge="1">
                    <mxGeometry relative="1" as="geometry"/>
                </mxCell>
                <mxCell id="40" value="Customer" style="rounded=0;whiteSpace=wrap;html=1;" parent="1" vertex="1">
                    <mxGeometry x="467.5" y="150" width="120" height="60" as="geometry"/>
                </mxCell>
                <mxCell id="41" value="Created At" style="ellipse;whiteSpace=wrap;html=1;" parent="1" vertex="1">
                    <mxGeometry x="570" y="10" width="80" height="50" as="geometry"/>
                </mxCell>
                <mxCell id="42" value="Updated At" style="ellipse;whiteSpace=wrap;html=1;" parent="1" vertex="1">
                    <mxGeometry x="657.5" y="10" width="80" height="50" as="geometry"/>
                </mxCell>
                <mxCell id="44" value="Id&lt;br&gt;---" style="ellipse;whiteSpace=wrap;html=1;" parent="1" vertex="1">
                    <mxGeometry x="332.5" y="10" width="80" height="50" as="geometry"/>
                </mxCell>
                <mxCell id="56" value="" style="edgeStyle=none;html=1;" parent="1" source="50" target="53" edge="1">
                    <mxGeometry relative="1" as="geometry"/>
                </mxCell>
                <mxCell id="57" style="edgeStyle=none;html=1;entryX=0.5;entryY=1;entryDx=0;entryDy=0;" parent="1" source="50" target="54" edge="1">
                    <mxGeometry relative="1" as="geometry"/>
                </mxCell>
                <mxCell id="58" style="edgeStyle=none;html=1;entryX=0;entryY=1;entryDx=0;entryDy=0;" parent="1" source="50" target="55" edge="1">
                    <mxGeometry relative="1" as="geometry"/>
                </mxCell>
                <mxCell id="59" style="edgeStyle=none;html=1;entryX=0.5;entryY=1;entryDx=0;entryDy=0;" parent="1" source="50" target="51" edge="1">
                    <mxGeometry relative="1" as="geometry"/>
                </mxCell>
                <mxCell id="60" style="edgeStyle=none;html=1;entryX=0.5;entryY=1;entryDx=0;entryDy=0;" parent="1" source="50" target="52" edge="1">
                    <mxGeometry relative="1" as="geometry"/>
                </mxCell>
                <mxCell id="50" value="Company" style="rounded=0;whiteSpace=wrap;html=1;" parent="1" vertex="1">
                    <mxGeometry x="935" y="150" width="120" height="60" as="geometry"/>
                </mxCell>
                <mxCell id="51" value="Name" style="ellipse;whiteSpace=wrap;html=1;" parent="1" vertex="1">
                    <mxGeometry x="850" y="10" width="80" height="50" as="geometry"/>
                </mxCell>
                <mxCell id="52" value="Id&lt;br&gt;---" style="ellipse;whiteSpace=wrap;html=1;" parent="1" vertex="1">
                    <mxGeometry x="760" y="10" width="80" height="50" as="geometry"/>
                </mxCell>
                <mxCell id="53" value="TRN" style="ellipse;whiteSpace=wrap;html=1;" parent="1" vertex="1">
                    <mxGeometry x="950" y="10" width="80" height="50" as="geometry"/>
                </mxCell>
                <mxCell id="54" value="Created At" style="ellipse;whiteSpace=wrap;html=1;" parent="1" vertex="1">
                    <mxGeometry x="1050" y="10" width="80" height="50" as="geometry"/>
                </mxCell>
                <mxCell id="55" value="Updated At" style="ellipse;whiteSpace=wrap;html=1;" parent="1" vertex="1">
                    <mxGeometry x="1150" y="10" width="80" height="50" as="geometry"/>
                </mxCell>
                <mxCell id="66" style="edgeStyle=none;html=1;entryX=1;entryY=0.5;entryDx=0;entryDy=0;" parent="1" source="68" target="70" edge="1">
                    <mxGeometry relative="1" as="geometry"/>
                </mxCell>
                <mxCell id="67" style="edgeStyle=none;html=1;entryX=1;entryY=0.5;entryDx=0;entryDy=0;" parent="1" source="68" target="69" edge="1">
                    <mxGeometry relative="1" as="geometry"/>
                </mxCell>
                <mxCell id="68" value="Role" style="rounded=0;whiteSpace=wrap;html=1;" parent="1" vertex="1">
                    <mxGeometry x="200" y="480" width="120" height="60" as="geometry"/>
                </mxCell>
                <mxCell id="69" value="Id&lt;br&gt;---" style="ellipse;whiteSpace=wrap;html=1;" parent="1" vertex="1">
                    <mxGeometry x="40" y="440" width="80" height="50" as="geometry"/>
                </mxCell>
                <mxCell id="70" value="Name" style="ellipse;whiteSpace=wrap;html=1;" parent="1" vertex="1">
                    <mxGeometry x="40" y="530" width="80" height="50" as="geometry"/>
                </mxCell>
                <mxCell id="76" style="edgeStyle=none;html=1;entryX=0.5;entryY=1;entryDx=0;entryDy=0;" parent="1" source="71" target="73" edge="1">
                    <mxGeometry relative="1" as="geometry"/>
                </mxCell>
                <mxCell id="77" style="edgeStyle=none;html=1;entryX=0.5;entryY=1;entryDx=0;entryDy=0;" parent="1" source="71" target="75" edge="1">
                    <mxGeometry relative="1" as="geometry"/>
                </mxCell>
                <mxCell id="78" style="edgeStyle=none;html=1;entryX=0.5;entryY=1;entryDx=0;entryDy=0;" parent="1" source="71" target="74" edge="1">
                    <mxGeometry relative="1" as="geometry"/>
                </mxCell>
                <mxCell id="79" style="edgeStyle=none;html=1;entryX=0.5;entryY=1;entryDx=0;entryDy=0;" parent="1" source="71" target="72" edge="1">
                    <mxGeometry relative="1" as="geometry"/>
                </mxCell>
                <mxCell id="71" value="Platform" style="rounded=0;whiteSpace=wrap;html=1;" parent="1" vertex="1">
                    <mxGeometry x="1390" y="150" width="120" height="60" as="geometry"/>
                </mxCell>
                <mxCell id="72" value="Id&lt;br&gt;----" style="ellipse;whiteSpace=wrap;html=1;" parent="1" vertex="1">
                    <mxGeometry x="1250" y="10" width="80" height="50" as="geometry"/>
                </mxCell>
                <mxCell id="73" value="Name" style="ellipse;whiteSpace=wrap;html=1;" parent="1" vertex="1">
                    <mxGeometry x="1360" y="10" width="80" height="50" as="geometry"/>
                </mxCell>
                <mxCell id="74" value="Updated At" style="ellipse;whiteSpace=wrap;html=1;" parent="1" vertex="1">
                    <mxGeometry x="1570" y="10" width="80" height="50" as="geometry"/>
                </mxCell>
                <mxCell id="75" value="Created At" style="ellipse;whiteSpace=wrap;html=1;" parent="1" vertex="1">
                    <mxGeometry x="1460" y="10" width="80" height="50" as="geometry"/>
                </mxCell>
                <mxCell id="85" style="edgeStyle=none;html=1;entryX=1;entryY=0.5;entryDx=0;entryDy=0;" parent="1" source="80" target="82" edge="1">
                    <mxGeometry relative="1" as="geometry"/>
                </mxCell>
                <mxCell id="86" style="edgeStyle=none;html=1;entryX=1;entryY=0.5;entryDx=0;entryDy=0;" parent="1" source="80" target="83" edge="1">
                    <mxGeometry relative="1" as="geometry"/>
                </mxCell>
                <mxCell id="87" style="edgeStyle=none;html=1;entryX=1;entryY=0.5;entryDx=0;entryDy=0;" parent="1" source="80" target="84" edge="1">
                    <mxGeometry relative="1" as="geometry"/>
                </mxCell>
                <mxCell id="88" style="edgeStyle=none;html=1;entryX=1;entryY=0.5;entryDx=0;entryDy=0;" parent="1" source="80" target="81" edge="1">
                    <mxGeometry relative="1" as="geometry"/>
                </mxCell>
                <mxCell id="80" value="Product" style="rounded=0;whiteSpace=wrap;html=1;" parent="1" vertex="1">
                    <mxGeometry x="200" y="720" width="120" height="60" as="geometry"/>
                </mxCell>
                <mxCell id="81" value="Id&lt;br&gt;---" style="ellipse;whiteSpace=wrap;html=1;" parent="1" vertex="1">
                    <mxGeometry x="40" y="600" width="80" height="50" as="geometry"/>
                </mxCell>
                <mxCell id="82" value="Name" style="ellipse;whiteSpace=wrap;html=1;" parent="1" vertex="1">
                    <mxGeometry x="40" y="680" width="80" height="50" as="geometry"/>
                </mxCell>
                <mxCell id="83" value="Created At" style="ellipse;whiteSpace=wrap;html=1;" parent="1" vertex="1">
                    <mxGeometry x="40" y="760" width="80" height="50" as="geometry"/>
                </mxCell>
                <mxCell id="84" value="Updated At" style="ellipse;whiteSpace=wrap;html=1;" parent="1" vertex="1">
                    <mxGeometry x="40" y="840" width="80" height="50" as="geometry"/>
                </mxCell>
                <mxCell id="102" style="edgeStyle=none;html=1;entryX=0.5;entryY=0;entryDx=0;entryDy=0;" parent="1" source="89" target="100" edge="1">
                    <mxGeometry relative="1" as="geometry"/>
                </mxCell>
                <mxCell id="103" style="edgeStyle=none;html=1;entryX=0.5;entryY=0;entryDx=0;entryDy=0;" parent="1" source="89" target="99" edge="1">
                    <mxGeometry relative="1" as="geometry"/>
                </mxCell>
                <mxCell id="104" style="edgeStyle=none;html=1;entryX=0.5;entryY=0;entryDx=0;entryDy=0;" parent="1" source="89" target="94" edge="1">
                    <mxGeometry relative="1" as="geometry"/>
                </mxCell>
                <mxCell id="105" style="edgeStyle=none;html=1;entryX=0.5;entryY=0;entryDx=0;entryDy=0;" parent="1" source="89" target="95" edge="1">
                    <mxGeometry relative="1" as="geometry"/>
                </mxCell>
                <mxCell id="106" style="edgeStyle=none;html=1;entryX=0.5;entryY=0;entryDx=0;entryDy=0;" parent="1" source="89" target="91" edge="1">
                    <mxGeometry relative="1" as="geometry"/>
                </mxCell>
                <mxCell id="107" style="edgeStyle=none;html=1;entryX=0.5;entryY=0;entryDx=0;entryDy=0;" parent="1" source="89" target="90" edge="1">
                    <mxGeometry relative="1" as="geometry"/>
                </mxCell>
                <mxCell id="108" style="edgeStyle=none;html=1;entryX=0.5;entryY=0;entryDx=0;entryDy=0;" parent="1" source="89" target="93" edge="1">
                    <mxGeometry relative="1" as="geometry"/>
                </mxCell>
                <mxCell id="109" style="edgeStyle=none;html=1;entryX=0.5;entryY=0;entryDx=0;entryDy=0;" parent="1" source="89" target="92" edge="1">
                    <mxGeometry relative="1" as="geometry"/>
                </mxCell>
                <mxCell id="89" value="Product Unit" style="rounded=0;whiteSpace=wrap;html=1;" parent="1" vertex="1">
                    <mxGeometry x="902.5" y="800" width="120" height="60" as="geometry"/>
                </mxCell>
                <mxCell id="90" value="Stock" style="ellipse;whiteSpace=wrap;html=1;" parent="1" vertex="1">
                    <mxGeometry x="712.5" y="920" width="80" height="50" as="geometry"/>
                </mxCell>
                <mxCell id="91" value="Price" style="ellipse;whiteSpace=wrap;html=1;" parent="1" vertex="1">
                    <mxGeometry x="805" y="920" width="80" height="50" as="geometry"/>
                </mxCell>
                <mxCell id="92" value="Id&lt;br&gt;----" style="ellipse;whiteSpace=wrap;html=1;" parent="1" vertex="1">
                    <mxGeometry x="522.5" y="920" width="80" height="50" as="geometry"/>
                </mxCell>
                <mxCell id="93" value="Description" style="ellipse;whiteSpace=wrap;html=1;" parent="1" vertex="1">
                    <mxGeometry x="622.5" y="920" width="80" height="50" as="geometry"/>
                </mxCell>
                <mxCell id="94" value="Created At" style="ellipse;whiteSpace=wrap;html=1;" parent="1" vertex="1">
                    <mxGeometry x="1205.6299999999999" y="920" width="80" height="50" as="geometry"/>
                </mxCell>
                <mxCell id="95" value="Updated At" style="ellipse;whiteSpace=wrap;html=1;" parent="1" vertex="1">
                    <mxGeometry x="1303.1299999999999" y="920" width="80" height="50" as="geometry"/>
                </mxCell>
                <mxCell id="97" value="" style="ellipse;whiteSpace=wrap;html=1;" parent="1" vertex="1">
                    <mxGeometry x="1022.5" y="920" width="80" height="50" as="geometry"/>
                </mxCell>
                <mxCell id="99" value="Rate" style="ellipse;whiteSpace=wrap;html=1;" parent="1" vertex="1">
                    <mxGeometry x="1109.3799999999999" y="920" width="80" height="50" as="geometry"/>
                </mxCell>
                <mxCell id="100" value="Images" style="ellipse;whiteSpace=wrap;html=1;" parent="1" vertex="1">
                    <mxGeometry x="1029.06" y="925" width="66.88" height="40" as="geometry"/>
                </mxCell>
                <mxCell id="115" style="edgeStyle=none;html=1;entryX=0.5;entryY=0;entryDx=0;entryDy=0;" parent="1" source="110" target="112" edge="1">
                    <mxGeometry relative="1" as="geometry"/>
                </mxCell>
                <mxCell id="116" style="edgeStyle=none;html=1;entryX=0.5;entryY=0;entryDx=0;entryDy=0;" parent="1" source="110" target="113" edge="1">
                    <mxGeometry relative="1" as="geometry"/>
                </mxCell>
                <mxCell id="117" style="edgeStyle=none;html=1;entryX=0.5;entryY=0;entryDx=0;entryDy=0;" parent="1" source="110" target="114" edge="1">
                    <mxGeometry relative="1" as="geometry"/>
                </mxCell>
                <mxCell id="118" style="edgeStyle=none;html=1;entryX=0.5;entryY=0;entryDx=0;entryDy=0;" parent="1" source="110" target="111" edge="1">
                    <mxGeometry relative="1" as="geometry"/>
                </mxCell>
                <mxCell id="332" style="edgeStyle=none;html=1;entryX=1;entryY=0;entryDx=0;entryDy=0;" parent="1" source="110" target="331" edge="1">
                    <mxGeometry relative="1" as="geometry"/>
                </mxCell>
                <mxCell id="110" value="Unit" style="rounded=0;whiteSpace=wrap;html=1;" parent="1" vertex="1">
                    <mxGeometry x="1532.5" y="805" width="120" height="60" as="geometry"/>
                </mxCell>
                <mxCell id="111" value="Id&lt;br&gt;-----" style="ellipse;whiteSpace=wrap;html=1;" parent="1" vertex="1">
                    <mxGeometry x="1417.5" y="920" width="80" height="50" as="geometry"/>
                </mxCell>
                <mxCell id="112" value="Name" style="ellipse;whiteSpace=wrap;html=1;" parent="1" vertex="1">
                    <mxGeometry x="1507.5" y="920" width="80" height="50" as="geometry"/>
                </mxCell>
                <mxCell id="113" value="Created At" style="ellipse;whiteSpace=wrap;html=1;" parent="1" vertex="1">
                    <mxGeometry x="1630" y="970" width="80" height="50" as="geometry"/>
                </mxCell>
                <mxCell id="114" value="Updated At" style="ellipse;whiteSpace=wrap;html=1;" parent="1" vertex="1">
                    <mxGeometry x="1687.5" y="920" width="80" height="50" as="geometry"/>
                </mxCell>
                <mxCell id="124" style="edgeStyle=none;html=1;" parent="1" source="119" target="121" edge="1">
                    <mxGeometry relative="1" as="geometry"/>
                </mxCell>
                <mxCell id="125" style="edgeStyle=none;html=1;entryX=0.5;entryY=0;entryDx=0;entryDy=0;" parent="1" source="119" target="122" edge="1">
                    <mxGeometry relative="1" as="geometry"/>
                </mxCell>
                <mxCell id="126" style="edgeStyle=none;html=1;entryX=0.5;entryY=0;entryDx=0;entryDy=0;" parent="1" source="119" target="120" edge="1">
                    <mxGeometry relative="1" as="geometry"/>
                </mxCell>
                <mxCell id="119" value="Shopping Cart" style="rounded=0;whiteSpace=wrap;html=1;" parent="1" vertex="1">
                    <mxGeometry x="1897.5" y="800" width="120" height="60" as="geometry"/>
                </mxCell>
                <mxCell id="120" value="Id&lt;br&gt;----" style="ellipse;whiteSpace=wrap;html=1;" parent="1" vertex="1">
                    <mxGeometry x="1787.5" y="915" width="80" height="50" as="geometry"/>
                </mxCell>
                <mxCell id="121" value="Created At" style="ellipse;whiteSpace=wrap;html=1;" parent="1" vertex="1">
                    <mxGeometry x="1917.5" y="915" width="80" height="50" as="geometry"/>
                </mxCell>
                <mxCell id="122" value="Updated At" style="ellipse;whiteSpace=wrap;html=1;" parent="1" vertex="1">
                    <mxGeometry x="2047.5" y="915" width="80" height="50" as="geometry"/>
                </mxCell>
                <mxCell id="132" style="edgeStyle=none;html=1;entryX=0.5;entryY=0;entryDx=0;entryDy=0;" parent="1" source="127" target="130" edge="1">
                    <mxGeometry relative="1" as="geometry"/>
                </mxCell>
                <mxCell id="133" style="edgeStyle=none;html=1;entryX=0.5;entryY=0;entryDx=0;entryDy=0;" parent="1" source="127" target="131" edge="1">
                    <mxGeometry relative="1" as="geometry"/>
                </mxCell>
                <mxCell id="134" style="edgeStyle=none;html=1;entryX=0.5;entryY=0;entryDx=0;entryDy=0;" parent="1" source="127" target="129" edge="1">
                    <mxGeometry relative="1" as="geometry"/>
                </mxCell>
                <mxCell id="127" value="Shopping Cart Item" style="rounded=0;whiteSpace=wrap;html=1;" parent="1" vertex="1">
                    <mxGeometry x="2235" y="800" width="120" height="60" as="geometry"/>
                </mxCell>
                <mxCell id="129" value="Id&lt;br&gt;----" style="ellipse;whiteSpace=wrap;html=1;" parent="1" vertex="1">
                    <mxGeometry x="2155" y="910" width="80" height="50" as="geometry"/>
                </mxCell>
                <mxCell id="130" value="Quantity" style="ellipse;whiteSpace=wrap;html=1;" parent="1" vertex="1">
                    <mxGeometry x="2255" y="910" width="80" height="50" as="geometry"/>
                </mxCell>
                <mxCell id="131" value="Added At" style="ellipse;whiteSpace=wrap;html=1;" parent="1" vertex="1">
                    <mxGeometry x="2360" y="910" width="80" height="50" as="geometry"/>
                </mxCell>
                <mxCell id="166" style="edgeStyle=none;html=1;entryX=0.5;entryY=1;entryDx=0;entryDy=0;" parent="1" source="135" target="162" edge="1">
                    <mxGeometry relative="1" as="geometry"/>
                </mxCell>
                <mxCell id="167" style="edgeStyle=none;html=1;entryX=0.5;entryY=1;entryDx=0;entryDy=0;" parent="1" source="135" target="163" edge="1">
                    <mxGeometry relative="1" as="geometry"/>
                </mxCell>
                <mxCell id="168" style="edgeStyle=none;html=1;entryX=0.5;entryY=1;entryDx=0;entryDy=0;" parent="1" source="135" target="164" edge="1">
                    <mxGeometry relative="1" as="geometry"/>
                </mxCell>
                <mxCell id="169" style="edgeStyle=none;html=1;entryX=0.5;entryY=1;entryDx=0;entryDy=0;" parent="1" source="135" target="165" edge="1">
                    <mxGeometry relative="1" as="geometry"/>
                </mxCell>
                <mxCell id="135" value="Order" style="rounded=0;whiteSpace=wrap;html=1;" parent="1" vertex="1">
                    <mxGeometry x="1867.5" y="145" width="120" height="60" as="geometry"/>
                </mxCell>
                <mxCell id="171" style="edgeStyle=none;html=1;entryX=0.5;entryY=1;entryDx=0;entryDy=0;" parent="1" source="136" target="170" edge="1">
                    <mxGeometry relative="1" as="geometry"/>
                </mxCell>
                <mxCell id="319" style="edgeStyle=none;html=1;" parent="1" source="136" target="317" edge="1">
                    <mxGeometry relative="1" as="geometry"/>
                </mxCell>
                <mxCell id="320" style="edgeStyle=none;html=1;entryX=0.5;entryY=1;entryDx=0;entryDy=0;" parent="1" source="136" target="318" edge="1">
                    <mxGeometry relative="1" as="geometry"/>
                </mxCell>
                <mxCell id="136" value="Order Details" style="rounded=0;whiteSpace=wrap;html=1;" parent="1" vertex="1">
                    <mxGeometry x="2230" y="145" width="120" height="60" as="geometry"/>
                </mxCell>
                <mxCell id="156" style="edgeStyle=none;html=1;" parent="1" source="137" target="151" edge="1">
                    <mxGeometry relative="1" as="geometry"/>
                </mxCell>
                <mxCell id="157" style="edgeStyle=none;html=1;entryX=0;entryY=0.5;entryDx=0;entryDy=0;" parent="1" source="137" target="152" edge="1">
                    <mxGeometry relative="1" as="geometry"/>
                </mxCell>
                <mxCell id="158" style="edgeStyle=none;html=1;entryX=0;entryY=0;entryDx=0;entryDy=0;" parent="1" source="137" target="153" edge="1">
                    <mxGeometry relative="1" as="geometry"/>
                </mxCell>
                <mxCell id="159" style="edgeStyle=none;html=1;entryX=0;entryY=0.5;entryDx=0;entryDy=0;" parent="1" source="137" target="154" edge="1">
                    <mxGeometry relative="1" as="geometry"/>
                </mxCell>
                <mxCell id="160" style="edgeStyle=none;html=1;entryX=0;entryY=0.5;entryDx=0;entryDy=0;" parent="1" source="137" target="150" edge="1">
                    <mxGeometry relative="1" as="geometry"/>
                </mxCell>
                <mxCell id="161" style="edgeStyle=none;html=1;entryX=0;entryY=0.5;entryDx=0;entryDy=0;" parent="1" source="137" target="155" edge="1">
                    <mxGeometry relative="1" as="geometry"/>
                </mxCell>
                <mxCell id="137" value="Payment" style="rounded=0;whiteSpace=wrap;html=1;" parent="1" vertex="1">
                    <mxGeometry x="2440" y="240" width="120" height="60" as="geometry"/>
                </mxCell>
                <mxCell id="145" style="edgeStyle=none;html=1;entryX=0;entryY=0.5;entryDx=0;entryDy=0;" parent="1" source="138" target="141" edge="1">
                    <mxGeometry relative="1" as="geometry"/>
                </mxCell>
                <mxCell id="146" style="edgeStyle=none;html=1;entryX=0;entryY=0;entryDx=0;entryDy=0;" parent="1" source="138" target="142" edge="1">
                    <mxGeometry relative="1" as="geometry"/>
                </mxCell>
                <mxCell id="147" style="edgeStyle=none;html=1;entryX=0;entryY=0;entryDx=0;entryDy=0;" parent="1" source="138" target="143" edge="1">
                    <mxGeometry relative="1" as="geometry"/>
                </mxCell>
                <mxCell id="148" style="edgeStyle=none;html=1;entryX=0;entryY=0.5;entryDx=0;entryDy=0;" parent="1" target="140" edge="1">
                    <mxGeometry relative="1" as="geometry">
                        <mxPoint x="2560" y="603.2142857142858" as="sourcePoint"/>
                    </mxGeometry>
                </mxCell>
                <mxCell id="149" style="edgeStyle=none;html=1;entryX=0;entryY=0.5;entryDx=0;entryDy=0;exitX=0.75;exitY=0;exitDx=0;exitDy=0;" parent="1" source="138" target="144" edge="1">
                    <mxGeometry relative="1" as="geometry">
                        <mxPoint x="2560" y="573.2142857142858" as="sourcePoint"/>
                    </mxGeometry>
                </mxCell>
                <mxCell id="138" value="Shipment" style="rounded=0;whiteSpace=wrap;html=1;" parent="1" vertex="1">
                    <mxGeometry x="2440" y="580" width="120" height="60" as="geometry"/>
                </mxCell>
                <mxCell id="140" value="Tracking Number" style="ellipse;whiteSpace=wrap;html=1;" parent="1" vertex="1">
                    <mxGeometry x="2600" y="585" width="80" height="50" as="geometry"/>
                </mxCell>
                <mxCell id="141" value="Status" style="ellipse;whiteSpace=wrap;html=1;" parent="1" vertex="1">
                    <mxGeometry x="2600" y="657.5" width="80" height="50" as="geometry"/>
                </mxCell>
                <mxCell id="142" value="Created At" style="ellipse;whiteSpace=wrap;html=1;" parent="1" vertex="1">
                    <mxGeometry x="2600" y="727.5" width="80" height="50" as="geometry"/>
                </mxCell>
                <mxCell id="143" value="Updated At" style="ellipse;whiteSpace=wrap;html=1;" parent="1" vertex="1">
                    <mxGeometry x="2600" y="797.5" width="80" height="50" as="geometry"/>
                </mxCell>
                <mxCell id="144" value="Id&lt;br&gt;----" style="ellipse;whiteSpace=wrap;html=1;" parent="1" vertex="1">
                    <mxGeometry x="2600" y="517.5" width="80" height="50" as="geometry"/>
                </mxCell>
                <mxCell id="150" value="Transaction Id" style="ellipse;whiteSpace=wrap;html=1;" parent="1" vertex="1">
                    <mxGeometry x="2600" y="170" width="80" height="50" as="geometry"/>
                </mxCell>
                <mxCell id="151" value="Type" style="ellipse;whiteSpace=wrap;html=1;" parent="1" vertex="1">
                    <mxGeometry x="2600" y="245" width="80" height="50" as="geometry"/>
                </mxCell>
                <mxCell id="152" value="Amount" style="ellipse;whiteSpace=wrap;html=1;" parent="1" vertex="1">
                    <mxGeometry x="2600" y="310" width="80" height="50" as="geometry"/>
                </mxCell>
                <mxCell id="153" value="Created At" style="ellipse;whiteSpace=wrap;html=1;" parent="1" vertex="1">
                    <mxGeometry x="2600" y="370" width="80" height="50" as="geometry"/>
                </mxCell>
                <mxCell id="154" value="Updated At" style="ellipse;whiteSpace=wrap;html=1;" parent="1" vertex="1">
                    <mxGeometry x="2600" y="430" width="80" height="50" as="geometry"/>
                </mxCell>
                <mxCell id="155" value="Id&lt;br&gt;------" style="ellipse;whiteSpace=wrap;html=1;" parent="1" vertex="1">
                    <mxGeometry x="2600" y="95" width="80" height="50" as="geometry"/>
                </mxCell>
                <mxCell id="162" value="Id&lt;br&gt;-----" style="ellipse;whiteSpace=wrap;html=1;" parent="1" vertex="1">
                    <mxGeometry x="1730" y="10" width="80" height="50" as="geometry"/>
                </mxCell>
                <mxCell id="163" value="Status" style="ellipse;whiteSpace=wrap;html=1;" parent="1" vertex="1">
                    <mxGeometry x="1830" y="10" width="80" height="50" as="geometry"/>
                </mxCell>
                <mxCell id="164" value="Created At" style="ellipse;whiteSpace=wrap;html=1;" parent="1" vertex="1">
                    <mxGeometry x="1937.5" y="10" width="80" height="50" as="geometry"/>
                </mxCell>
                <mxCell id="165" value="Updated At" style="ellipse;whiteSpace=wrap;html=1;" parent="1" vertex="1">
                    <mxGeometry x="2040" y="15" width="80" height="50" as="geometry"/>
                </mxCell>
                <mxCell id="170" value="Id&lt;br&gt;-----" style="ellipse;whiteSpace=wrap;html=1;" parent="1" vertex="1">
                    <mxGeometry x="2160" y="15" width="80" height="50" as="geometry"/>
                </mxCell>
                <mxCell id="186" style="edgeStyle=none;html=1;entryX=1;entryY=0.5;entryDx=0;entryDy=0;shape=link;" parent="1" source="185" target="50" edge="1">
                    <mxGeometry relative="1" as="geometry"/>
                </mxCell>
                <mxCell id="187" style="edgeStyle=none;html=1;entryX=0;entryY=0.5;entryDx=0;entryDy=0;" parent="1" source="185" target="71" edge="1">
                    <mxGeometry relative="1" as="geometry"/>
                </mxCell>
                <mxCell id="185" value="Asigned" style="rhombus;whiteSpace=wrap;html=1;" parent="1" vertex="1">
                    <mxGeometry x="1180" y="140" width="80" height="80" as="geometry"/>
                </mxCell>
                <mxCell id="188" value="m" style="text;html=1;align=center;verticalAlign=middle;resizable=0;points=[];autosize=1;strokeColor=none;fillColor=none;" parent="1" vertex="1">
                    <mxGeometry x="1055" y="148" width="30" height="30" as="geometry"/>
                </mxCell>
                <mxCell id="189" value="m" style="text;html=1;align=center;verticalAlign=middle;resizable=0;points=[];autosize=1;strokeColor=none;fillColor=none;" parent="1" vertex="1">
                    <mxGeometry x="1355" y="148" width="30" height="30" as="geometry"/>
                </mxCell>
                <mxCell id="201" style="edgeStyle=none;html=1;entryX=0.5;entryY=0;entryDx=0;entryDy=0;" parent="1" source="195" target="196" edge="1">
                    <mxGeometry relative="1" as="geometry"/>
                </mxCell>
                <mxCell id="202" style="edgeStyle=none;html=1;entryX=0.5;entryY=0;entryDx=0;entryDy=0;" parent="1" source="195" target="197" edge="1">
                    <mxGeometry relative="1" as="geometry"/>
                </mxCell>
                <mxCell id="204" style="edgeStyle=none;html=1;entryX=0.5;entryY=0;entryDx=0;entryDy=0;" parent="1" source="195" target="199" edge="1">
                    <mxGeometry relative="1" as="geometry"/>
                </mxCell>
                <mxCell id="205" style="edgeStyle=none;html=1;entryX=0.5;entryY=0;entryDx=0;entryDy=0;" parent="1" source="195" target="200" edge="1">
                    <mxGeometry relative="1" as="geometry"/>
                </mxCell>
                <mxCell id="195" value="Category" style="rounded=0;whiteSpace=wrap;html=1;" parent="1" vertex="1">
                    <mxGeometry x="312.5" y="800" width="120" height="60" as="geometry"/>
                </mxCell>
                <mxCell id="196" value="Id&lt;br&gt;----" style="ellipse;whiteSpace=wrap;html=1;" parent="1" vertex="1">
                    <mxGeometry x="140" y="920" width="80" height="50" as="geometry"/>
                </mxCell>
                <mxCell id="197" value="Name" style="ellipse;whiteSpace=wrap;html=1;" parent="1" vertex="1">
                    <mxGeometry x="232.5" y="920" width="80" height="50" as="geometry"/>
                </mxCell>
                <mxCell id="199" value="Created At" style="ellipse;whiteSpace=wrap;html=1;" parent="1" vertex="1">
                    <mxGeometry x="328.75" y="920" width="80" height="50" as="geometry"/>
                </mxCell>
                <mxCell id="200" value="Updated At" style="ellipse;whiteSpace=wrap;html=1;" parent="1" vertex="1">
                    <mxGeometry x="421.25" y="920" width="80" height="50" as="geometry"/>
                </mxCell>
                <mxCell id="225" value="1" style="text;html=1;align=center;verticalAlign=middle;resizable=0;points=[];autosize=1;strokeColor=none;fillColor=none;" parent="1" vertex="1">
                    <mxGeometry x="320" y="155" width="30" height="30" as="geometry"/>
                </mxCell>
                <mxCell id="254" value="1" style="text;html=1;align=center;verticalAlign=middle;resizable=0;points=[];autosize=1;strokeColor=none;fillColor=none;" parent="1" vertex="1">
                    <mxGeometry x="2410" y="248" width="30" height="30" as="geometry"/>
                </mxCell>
                <mxCell id="263" value="1" style="text;html=1;align=center;verticalAlign=middle;resizable=0;points=[];autosize=1;strokeColor=none;fillColor=none;" parent="1" vertex="1">
                    <mxGeometry x="1955" y="208" width="30" height="30" as="geometry"/>
                </mxCell>
                <mxCell id="264" value="1" style="text;html=1;align=center;verticalAlign=middle;resizable=0;points=[];autosize=1;strokeColor=none;fillColor=none;" parent="1" vertex="1">
                    <mxGeometry x="2415" y="548" width="30" height="30" as="geometry"/>
                </mxCell>
                <mxCell id="265" value="Order Details" style="rounded=0;whiteSpace=wrap;html=1;" parent="1" vertex="1">
                    <mxGeometry x="2237.5" y="150" width="105" height="50" as="geometry"/>
                </mxCell>
                <mxCell id="266" value="Shopping Cart Item" style="rounded=0;whiteSpace=wrap;html=1;" parent="1" vertex="1">
                    <mxGeometry x="2245" y="805" width="100" height="50" as="geometry"/>
                </mxCell>
                <mxCell id="292" style="edgeStyle=none;html=1;entryX=0.5;entryY=1;entryDx=0;entryDy=0;" parent="1" source="267" target="272" edge="1">
                    <mxGeometry relative="1" as="geometry"/>
                </mxCell>
                <mxCell id="293" style="edgeStyle=none;html=1;entryX=0.5;entryY=1;entryDx=0;entryDy=0;" parent="1" source="267" target="273" edge="1">
                    <mxGeometry relative="1" as="geometry"/>
                </mxCell>
                <mxCell id="294" style="edgeStyle=none;html=1;entryX=0.5;entryY=1;entryDx=0;entryDy=0;" parent="1" source="267" edge="1">
                    <mxGeometry relative="1" as="geometry">
                        <mxPoint x="1337.5" y="-400" as="targetPoint"/>
                    </mxGeometry>
                </mxCell>
                <mxCell id="267" value="Country" style="rounded=0;whiteSpace=wrap;html=1;" parent="1" vertex="1">
                    <mxGeometry x="1430" y="-360" width="120" height="60" as="geometry"/>
                </mxCell>
                <mxCell id="289" style="edgeStyle=none;html=1;entryX=0.5;entryY=1;entryDx=0;entryDy=0;" parent="1" source="268" target="275" edge="1">
                    <mxGeometry relative="1" as="geometry"/>
                </mxCell>
                <mxCell id="290" style="edgeStyle=none;html=1;entryX=0.5;entryY=1;entryDx=0;entryDy=0;" parent="1" source="268" target="276" edge="1">
                    <mxGeometry relative="1" as="geometry"/>
                </mxCell>
                <mxCell id="291" style="edgeStyle=none;html=1;entryX=0.5;entryY=1;entryDx=0;entryDy=0;" parent="1" source="268" target="274" edge="1">
                    <mxGeometry relative="1" as="geometry"/>
                </mxCell>
                <mxCell id="268" value="City" style="rounded=0;whiteSpace=wrap;html=1;" parent="1" vertex="1">
                    <mxGeometry x="1051.87" y="-350" width="120" height="60" as="geometry"/>
                </mxCell>
                <mxCell id="286" style="edgeStyle=none;html=1;entryX=0.5;entryY=1;entryDx=0;entryDy=0;" parent="1" source="269" target="278" edge="1">
                    <mxGeometry relative="1" as="geometry"/>
                </mxCell>
                <mxCell id="287" style="edgeStyle=none;html=1;entryX=0.5;entryY=1;entryDx=0;entryDy=0;" parent="1" source="269" target="279" edge="1">
                    <mxGeometry relative="1" as="geometry"/>
                </mxCell>
                <mxCell id="288" style="edgeStyle=none;html=1;entryX=0.5;entryY=1;entryDx=0;entryDy=0;" parent="1" source="269" target="277" edge="1">
                    <mxGeometry relative="1" as="geometry"/>
                </mxCell>
                <mxCell id="269" value="Zone" style="rounded=0;whiteSpace=wrap;html=1;" parent="1" vertex="1">
                    <mxGeometry x="744.37" y="-350" width="120" height="60" as="geometry"/>
                </mxCell>
                <mxCell id="283" style="edgeStyle=none;html=1;entryX=0.5;entryY=1;entryDx=0;entryDy=0;" parent="1" source="270" target="281" edge="1">
                    <mxGeometry relative="1" as="geometry"/>
                </mxCell>
                <mxCell id="284" style="edgeStyle=none;html=1;entryX=0.5;entryY=1;entryDx=0;entryDy=0;" parent="1" source="270" target="282" edge="1">
                    <mxGeometry relative="1" as="geometry"/>
                </mxCell>
                <mxCell id="285" style="edgeStyle=none;html=1;entryX=0.5;entryY=1;entryDx=0;entryDy=0;" parent="1" source="270" target="280" edge="1">
                    <mxGeometry relative="1" as="geometry"/>
                </mxCell>
                <mxCell id="270" value="District" style="rounded=0;whiteSpace=wrap;html=1;" parent="1" vertex="1">
                    <mxGeometry x="396.87000000000023" y="-350" width="120" height="60" as="geometry"/>
                </mxCell>
                <mxCell id="271" value="Id&lt;br&gt;---" style="ellipse;whiteSpace=wrap;html=1;" parent="1" vertex="1">
                    <mxGeometry x="1290" y="-450" width="80" height="50" as="geometry"/>
                </mxCell>
                <mxCell id="272" value="Code" style="ellipse;whiteSpace=wrap;html=1;" parent="1" vertex="1">
                    <mxGeometry x="1407.5" y="-450" width="80" height="50" as="geometry"/>
                </mxCell>
                <mxCell id="273" value="Name" style="ellipse;whiteSpace=wrap;html=1;" parent="1" vertex="1">
                    <mxGeometry x="1517.5" y="-450" width="80" height="50" as="geometry"/>
                </mxCell>
                <mxCell id="274" value="Id&lt;br&gt;---" style="ellipse;whiteSpace=wrap;html=1;" parent="1" vertex="1">
                    <mxGeometry x="971.87" y="-450" width="80" height="50" as="geometry"/>
                </mxCell>
                <mxCell id="275" value="Code" style="ellipse;whiteSpace=wrap;html=1;" parent="1" vertex="1">
                    <mxGeometry x="1076.87" y="-450" width="80" height="50" as="geometry"/>
                </mxCell>
                <mxCell id="276" value="&lt;span style=&quot;color: rgb(0, 0, 0);&quot;&gt;Name&lt;/span&gt;" style="ellipse;whiteSpace=wrap;html=1;" parent="1" vertex="1">
                    <mxGeometry x="1181.87" y="-450" width="80" height="50" as="geometry"/>
                </mxCell>
                <mxCell id="277" value="Id&lt;br&gt;---" style="ellipse;whiteSpace=wrap;html=1;" parent="1" vertex="1">
                    <mxGeometry x="654.37" y="-450" width="80" height="50" as="geometry"/>
                </mxCell>
                <mxCell id="278" value="Code" style="ellipse;whiteSpace=wrap;html=1;" parent="1" vertex="1">
                    <mxGeometry x="756.87" y="-450" width="80" height="50" as="geometry"/>
                </mxCell>
                <mxCell id="279" value="&lt;span style=&quot;color: rgb(0, 0, 0);&quot;&gt;Name&lt;/span&gt;" style="ellipse;whiteSpace=wrap;html=1;" parent="1" vertex="1">
                    <mxGeometry x="864.37" y="-450" width="80" height="50" as="geometry"/>
                </mxCell>
                <mxCell id="280" value="Id&lt;br&gt;---" style="ellipse;whiteSpace=wrap;html=1;" parent="1" vertex="1">
                    <mxGeometry x="324.37000000000023" y="-450" width="80" height="50" as="geometry"/>
                </mxCell>
                <mxCell id="281" value="Code" style="ellipse;whiteSpace=wrap;html=1;" parent="1" vertex="1">
                    <mxGeometry x="426.87000000000023" y="-450" width="80" height="50" as="geometry"/>
                </mxCell>
                <mxCell id="282" value="&lt;span style=&quot;color: rgb(0, 0, 0);&quot;&gt;Name&lt;/span&gt;" style="ellipse;whiteSpace=wrap;html=1;" parent="1" vertex="1">
                    <mxGeometry x="534.3700000000002" y="-450" width="80" height="50" as="geometry"/>
                </mxCell>
                <mxCell id="315" value="First Line" style="ellipse;whiteSpace=wrap;html=1;" parent="1" vertex="1">
                    <mxGeometry x="485" y="10" width="80" height="50" as="geometry"/>
                </mxCell>
                <mxCell id="317" value="Quantity" style="ellipse;whiteSpace=wrap;html=1;" parent="1" vertex="1">
                    <mxGeometry x="2252.5" y="15" width="80" height="50" as="geometry"/>
                </mxCell>
                <mxCell id="318" value="Unit Price" style="ellipse;whiteSpace=wrap;html=1;" parent="1" vertex="1">
                    <mxGeometry x="2350" y="15" width="80" height="50" as="geometry"/>
                </mxCell>
                <mxCell id="331" value="Code" style="ellipse;whiteSpace=wrap;html=1;" parent="1" vertex="1">
                    <mxGeometry x="1535" y="990" width="80" height="50" as="geometry"/>
                </mxCell>
                <mxCell id="336" value="1" style="text;html=1;align=center;verticalAlign=middle;resizable=0;points=[];autosize=1;strokeColor=none;fillColor=none;" parent="1" vertex="1">
                    <mxGeometry x="2305" y="208" width="30" height="30" as="geometry"/>
                </mxCell>
                <mxCell id="384" style="edgeStyle=none;html=1;entryX=0.5;entryY=0;entryDx=0;entryDy=0;exitX=0;exitY=1;exitDx=0;exitDy=0;" parent="1" source="362" target="376" edge="1">
                    <mxGeometry relative="1" as="geometry">
                        <mxPoint x="610.62" y="1325" as="sourcePoint"/>
                    </mxGeometry>
                </mxCell>
                <mxCell id="385" style="edgeStyle=none;html=1;entryX=0.5;entryY=0;entryDx=0;entryDy=0;exitX=0.25;exitY=1;exitDx=0;exitDy=0;" parent="1" source="362" target="377" edge="1">
                    <mxGeometry relative="1" as="geometry">
                        <mxPoint x="661.87" y="1325" as="sourcePoint"/>
                    </mxGeometry>
                </mxCell>
                <mxCell id="392" style="edgeStyle=none;html=1;entryX=0.5;entryY=0;entryDx=0;entryDy=0;" parent="1" source="362" target="388" edge="1">
                    <mxGeometry relative="1" as="geometry"/>
                </mxCell>
                <mxCell id="393" style="edgeStyle=none;html=1;entryX=0.5;entryY=0;entryDx=0;entryDy=0;" parent="1" source="362" target="389" edge="1">
                    <mxGeometry relative="1" as="geometry"/>
                </mxCell>
                <mxCell id="362" value="Color" style="rounded=0;whiteSpace=wrap;html=1;" parent="1" vertex="1">
                    <mxGeometry x="720.0000000000001" y="1250" width="120" height="60" as="geometry"/>
                </mxCell>
                <mxCell id="386" style="edgeStyle=none;html=1;entryX=0.5;entryY=0;entryDx=0;entryDy=0;" parent="1" source="363" target="378" edge="1">
                    <mxGeometry relative="1" as="geometry"/>
                </mxCell>
                <mxCell id="387" style="edgeStyle=none;html=1;entryX=0.5;entryY=0;entryDx=0;entryDy=0;" parent="1" source="363" target="379" edge="1">
                    <mxGeometry relative="1" as="geometry"/>
                </mxCell>
                <mxCell id="394" style="edgeStyle=none;html=1;entryX=0.5;entryY=0;entryDx=0;entryDy=0;" parent="1" source="363" target="390" edge="1">
                    <mxGeometry relative="1" as="geometry"/>
                </mxCell>
                <mxCell id="395" style="edgeStyle=none;html=1;entryX=0.5;entryY=0;entryDx=0;entryDy=0;" parent="1" source="363" target="391" edge="1">
                    <mxGeometry relative="1" as="geometry"/>
                </mxCell>
                <mxCell id="363" value="Size" style="rounded=0;whiteSpace=wrap;html=1;" parent="1" vertex="1">
                    <mxGeometry x="1102.5" y="1250" width="120" height="60" as="geometry"/>
                </mxCell>
                <mxCell id="376" value="Id&lt;br&gt;-----" style="ellipse;whiteSpace=wrap;html=1;" parent="1" vertex="1">
                    <mxGeometry x="551.8699999999999" y="1355" width="80" height="50" as="geometry"/>
                </mxCell>
                <mxCell id="377" value="Name" style="ellipse;whiteSpace=wrap;html=1;" parent="1" vertex="1">
                    <mxGeometry x="654.3699999999999" y="1355" width="80" height="50" as="geometry"/>
                </mxCell>
                <mxCell id="378" value="Id&lt;br&gt;-----" style="ellipse;whiteSpace=wrap;html=1;" parent="1" vertex="1">
                    <mxGeometry x="1065" y="1340" width="80" height="50" as="geometry"/>
                </mxCell>
                <mxCell id="379" value="Value" style="ellipse;whiteSpace=wrap;html=1;" parent="1" vertex="1">
                    <mxGeometry x="1170" y="1340" width="80" height="50" as="geometry"/>
                </mxCell>
                <mxCell id="388" value="Created At" style="ellipse;whiteSpace=wrap;html=1;" parent="1" vertex="1">
                    <mxGeometry x="756.8699999999999" y="1355" width="80" height="50" as="geometry"/>
                </mxCell>
                <mxCell id="389" value="Updated At" style="ellipse;whiteSpace=wrap;html=1;" parent="1" vertex="1">
                    <mxGeometry x="849.9999999999999" y="1355" width="80" height="50" as="geometry"/>
                </mxCell>
                <mxCell id="390" value="Created At" style="ellipse;whiteSpace=wrap;html=1;" parent="1" vertex="1">
                    <mxGeometry x="1266.87" y="1340" width="80" height="50" as="geometry"/>
                </mxCell>
                <mxCell id="391" value="Updated At" style="ellipse;whiteSpace=wrap;html=1;" parent="1" vertex="1">
                    <mxGeometry x="1360" y="1340" width="80" height="50" as="geometry"/>
                </mxCell>
                <mxCell id="397" value="&lt;br&gt;&lt;span style=&quot;color: rgb(0, 0, 0); font-family: Aptos, &amp;quot;Segoe UI&amp;quot;, &amp;quot;Helvetica Neue&amp;quot;, sans-serif; font-size: 34px; font-style: normal; font-variant-ligatures: normal; font-variant-caps: normal; font-weight: 400; letter-spacing: normal; orphans: 2; text-align: left; text-indent: 0px; text-transform: none; widows: 2; word-spacing: 0px; -webkit-text-stroke-width: 0px; white-space: pre-wrap; text-decoration-thickness: initial; text-decoration-style: initial; text-decoration-color: initial; float: none; display: inline !important;&quot;&gt;Order ( Id ,CustomerId, Status , Created At , Updated At )&lt;/span&gt;&lt;div&gt;&lt;br/&gt;&lt;/div&gt;" style="whiteSpace=wrap;html=1;" parent="1" vertex="1">
                    <mxGeometry x="3260" y="808" width="1590" height="60" as="geometry"/>
                </mxCell>
                <mxCell id="399" value="&lt;span style=&quot;color: rgb(0, 0, 0); font-family: Aptos, &amp;quot;Segoe UI&amp;quot;, &amp;quot;Helvetica Neue&amp;quot;, sans-serif; font-size: 34px; text-align: left; white-space-collapse: preserve;&quot;&gt;Payment ( Id , Transaction Id , Type , Amount , Order Id , Created At , Updated At )&lt;/span&gt;" style="whiteSpace=wrap;html=1;" parent="1" vertex="1">
                    <mxGeometry x="3260" y="1085.5" width="1370" height="60" as="geometry"/>
                </mxCell>
                <mxCell id="400" value="" style="endArrow=classic;html=1;exitX=0.618;exitY=0.003;exitDx=0;exitDy=0;exitPerimeter=0;" parent="1" source="399" edge="1">
                    <mxGeometry width="50" height="50" relative="1" as="geometry">
                        <mxPoint x="4450" y="968" as="sourcePoint"/>
                        <mxPoint x="3750" y="870" as="targetPoint"/>
                    </mxGeometry>
                </mxCell>
                <mxCell id="402" value="&lt;span style=&quot;color: rgb(0, 0, 0); font-family: Aptos, &amp;quot;Segoe UI&amp;quot;, &amp;quot;Helvetica Neue&amp;quot;, sans-serif; font-size: 34px; text-align: left; white-space-collapse: preserve;&quot;&gt;User ( Id , RoleId ,CompanyId ,Email , Password , Name , SSN , Phone Number , Created At , Updated At )&lt;/span&gt;" style="whiteSpace=wrap;html=1;" parent="1" vertex="1">
                    <mxGeometry x="3700" y="-420" width="1960" height="60" as="geometry"/>
                </mxCell>
                <mxCell id="403" value="&lt;span style=&quot;color: rgb(0, 0, 0); font-family: Aptos, &amp;quot;Segoe UI&amp;quot;, &amp;quot;Helvetica Neue&amp;quot;, sans-serif; font-size: 34px; text-align: left; white-space-collapse: preserve;&quot;&gt;Role ( Id , Name )&lt;/span&gt;" style="whiteSpace=wrap;html=1;" parent="1" vertex="1">
                    <mxGeometry x="3860" y="-570" width="1080" height="60" as="geometry"/>
                </mxCell>
                <mxCell id="404" value="&lt;span style=&quot;color: rgb(0, 0, 0); font-family: Aptos, &amp;quot;Segoe UI&amp;quot;, &amp;quot;Helvetica Neue&amp;quot;, sans-serif; font-size: 34px; text-align: left; white-space-collapse: preserve;&quot;&gt;Cutomer ( Id , First Line , User Id , District Id,Create At , Updated At&lt;/span&gt;" style="whiteSpace=wrap;html=1;" parent="1" vertex="1">
                    <mxGeometry x="3680" y="-80" width="1440" height="60" as="geometry"/>
                </mxCell>
                <mxCell id="405" value="&lt;span style=&quot;color: rgb(0, 0, 0); font-family: Aptos, &amp;quot;Segoe UI&amp;quot;, &amp;quot;Helvetica Neue&amp;quot;, sans-serif; font-size: 34px; text-align: left; white-space-collapse: preserve;&quot;&gt;Company ( Id , Name , TRN , Create At , Updated At )&lt;/span&gt;" style="whiteSpace=wrap;html=1;" parent="1" vertex="1">
                    <mxGeometry x="3800" y="-690" width="1270" height="60" as="geometry"/>
                </mxCell>
                <mxCell id="406" value="&lt;span style=&quot;color: rgb(0, 0, 0); font-family: Aptos, &amp;quot;Segoe UI&amp;quot;, &amp;quot;Helvetica Neue&amp;quot;, sans-serif; font-size: 34px; text-align: left; white-space-collapse: preserve;&quot;&gt;Plateform ( Id , Name , Created At , Updated At )&lt;/span&gt;" style="whiteSpace=wrap;html=1;" parent="1" vertex="1">
                    <mxGeometry x="3685" y="-2720" width="1460" height="60" as="geometry"/>
                </mxCell>
                <mxCell id="408" value="&lt;span style=&quot;color: rgb(0, 0, 0); font-family: Aptos, &amp;quot;Segoe UI&amp;quot;, &amp;quot;Helvetica Neue&amp;quot;, sans-serif; font-size: 34px; text-align: left; white-space-collapse: preserve;&quot;&gt;Country ( Id , Code , Name )&lt;/span&gt;" style="whiteSpace=wrap;html=1;" parent="1" vertex="1">
                    <mxGeometry x="3740" y="-2190" width="1260" height="60" as="geometry"/>
                </mxCell>
                <mxCell id="410" value="&lt;span style=&quot;color: rgb(0, 0, 0); font-family: Aptos, &amp;quot;Segoe UI&amp;quot;, &amp;quot;Helvetica Neue&amp;quot;, sans-serif; font-size: 34px; text-align: left; white-space-collapse: preserve;&quot;&gt;City ( Id ,CountryId ,Code , Name )&lt;/span&gt;" style="whiteSpace=wrap;html=1;" parent="1" vertex="1">
                    <mxGeometry x="3710" y="-2040" width="1400" height="60" as="geometry"/>
                </mxCell>
                <mxCell id="411" value="&lt;span style=&quot;color: rgb(0, 0, 0); font-family: Aptos, &amp;quot;Segoe UI&amp;quot;, &amp;quot;Helvetica Neue&amp;quot;, sans-serif; font-size: 34px; text-align: left; white-space-collapse: preserve;&quot;&gt;Zone ( Id ,CityId, Code , Name )&lt;/span&gt;" style="whiteSpace=wrap;html=1;" parent="1" vertex="1">
                    <mxGeometry x="3830" y="-1920" width="1140" height="60" as="geometry"/>
                </mxCell>
                <mxCell id="412" value="&lt;span style=&quot;color: rgb(0, 0, 0); font-family: Aptos, &amp;quot;Segoe UI&amp;quot;, &amp;quot;Helvetica Neue&amp;quot;, sans-serif; font-size: 34px; text-align: left; white-space-collapse: preserve;&quot;&gt;District ( Id , ZoneId,Code , Name )&lt;/span&gt;" style="whiteSpace=wrap;html=1;" parent="1" vertex="1">
                    <mxGeometry x="3955" y="-1790" width="920" height="60" as="geometry"/>
                </mxCell>
                <mxCell id="413" value="&lt;span style=&quot;color: rgb(0, 0, 0); font-family: Aptos, &amp;quot;Segoe UI&amp;quot;, &amp;quot;Helvetica Neue&amp;quot;, sans-serif; font-size: 34px; text-align: left; white-space-collapse: preserve;&quot;&gt;Product ( Id ,CompanyId,CategoryId ,Name , Created At , Updated At ) &lt;/span&gt;" style="whiteSpace=wrap;html=1;" parent="1" vertex="1">
                    <mxGeometry x="3690" y="-870" width="1630" height="60" as="geometry"/>
                </mxCell>
                <mxCell id="414" value="&lt;span style=&quot;color: rgb(0, 0, 0); font-family: Aptos, &amp;quot;Segoe UI&amp;quot;, &amp;quot;Helvetica Neue&amp;quot;, sans-serif; font-size: 34px; text-align: left; white-space-collapse: preserve;&quot;&gt;Product Unit ( Id ,ProductId,UnitId,ColorId,SizeId, Description , Stock , Price , Rate , Created At , Updated At ) &lt;/span&gt;" style="whiteSpace=wrap;html=1;" parent="1" vertex="1">
                    <mxGeometry x="3090" y="90" width="2210" height="60" as="geometry"/>
                </mxCell>
                <mxCell id="415" value="&lt;span style=&quot;color: rgb(0, 0, 0); font-family: Aptos, &amp;quot;Segoe UI&amp;quot;, &amp;quot;Helvetica Neue&amp;quot;, sans-serif; font-size: 34px; text-align: left; white-space-collapse: preserve;&quot;&gt;Product Unit Images ( Id , ImageUrl , Product UnitId Id )&lt;/span&gt;" style="whiteSpace=wrap;html=1;" parent="1" vertex="1">
                    <mxGeometry x="3700" y="-2390" width="1420" height="60" as="geometry"/>
                </mxCell>
                <mxCell id="417" value="&lt;span style=&quot;color: rgb(0, 0, 0); font-family: Aptos, &amp;quot;Segoe UI&amp;quot;, &amp;quot;Helvetica Neue&amp;quot;, sans-serif; font-size: 34px; text-align: left; white-space-collapse: preserve;&quot;&gt;Unit ( Id , Name , Code , Created At , Updated At ) &lt;/span&gt;" style="whiteSpace=wrap;html=1;" parent="1" vertex="1">
                    <mxGeometry x="3610" y="-1280" width="1790" height="60" as="geometry"/>
                </mxCell>
                <mxCell id="418" value="&lt;span style=&quot;color: rgb(0, 0, 0); font-family: Aptos, &amp;quot;Segoe UI&amp;quot;, &amp;quot;Helvetica Neue&amp;quot;, sans-serif; font-size: 34px; text-align: left; white-space-collapse: preserve;&quot;&gt;Shopping Cart ( Id ,Customer Id , Created At , Updated At )&lt;/span&gt;" style="whiteSpace=wrap;html=1;" parent="1" vertex="1">
                    <mxGeometry x="3460" y="-230" width="1910" height="60" as="geometry"/>
                </mxCell>
                <mxCell id="420" value="&lt;span style=&quot;color: rgb(0, 0, 0); font-family: Aptos, &amp;quot;Segoe UI&amp;quot;, &amp;quot;Helvetica Neue&amp;quot;, sans-serif; font-size: 34px; text-align: left; white-space-collapse: preserve;&quot;&gt;Color ( Id , Name , Created At, Updated At )&lt;/span&gt;" style="whiteSpace=wrap;html=1;" parent="1" vertex="1">
                    <mxGeometry x="3545" y="-1640" width="1880" height="60" as="geometry"/>
                </mxCell>
                <mxCell id="421" value="&lt;span style=&quot;color: rgb(0, 0, 0); font-family: Aptos, &amp;quot;Segoe UI&amp;quot;, &amp;quot;Helvetica Neue&amp;quot;, sans-serif; font-size: 34px; text-align: left; white-space-collapse: preserve;&quot;&gt;Size ( Id , Value , Created At , Updated At )&lt;/span&gt;" style="whiteSpace=wrap;html=1;" parent="1" vertex="1">
                    <mxGeometry x="3545" y="-1450" width="1860" height="60" as="geometry"/>
                </mxCell>
                <mxCell id="426" value="&lt;span style=&quot;color: rgb(0, 0, 0); font-family: Aptos, &amp;quot;Segoe UI&amp;quot;, &amp;quot;Helvetica Neue&amp;quot;, sans-serif; font-size: 34px; text-align: left; white-space-collapse: preserve;&quot;&gt;Order Details ( Id  , Quantity , Unit Price , Order Id , Product Unit Id ) &lt;/span&gt;" style="whiteSpace=wrap;html=1;" parent="1" vertex="1">
                    <mxGeometry x="3080" y="420" width="2220" height="60" as="geometry"/>
                </mxCell>
                <mxCell id="427" value="&lt;span style=&quot;color: rgb(0, 0, 0); font-family: Aptos, &amp;quot;Segoe UI&amp;quot;, &amp;quot;Helvetica Neue&amp;quot;, sans-serif; font-size: 34px; text-align: left; white-space-collapse: preserve;&quot;&gt;Shopping Cart Item ( Id ,ProductUnitId ,ShoppingCartId,Quantity , Added At , Shopping Cart Id )&lt;/span&gt;" style="whiteSpace=wrap;html=1;" parent="1" vertex="1">
                    <mxGeometry x="3545" y="-1130" width="1780" height="60" as="geometry"/>
                </mxCell>
                <mxCell id="430" value="" style="endArrow=classic;html=1;exitX=0.583;exitY=0.994;exitDx=0;exitDy=0;exitPerimeter=0;entryX=0.308;entryY=-0.017;entryDx=0;entryDy=0;entryPerimeter=0;" parent="1" source="426" target="397" edge="1">
                    <mxGeometry width="50" height="50" relative="1" as="geometry">
                        <mxPoint x="4020" y="430" as="sourcePoint"/>
                        <mxPoint x="4070" y="380" as="targetPoint"/>
                    </mxGeometry>
                </mxCell>
                <mxCell id="431" value="" style="endArrow=classic;html=1;exitX=0.672;exitY=0.106;exitDx=0;exitDy=0;exitPerimeter=0;entryX=0.234;entryY=1.055;entryDx=0;entryDy=0;entryPerimeter=0;" parent="1" source="426" target="414" edge="1">
                    <mxGeometry width="50" height="50" relative="1" as="geometry">
                        <mxPoint x="4490" y="370" as="sourcePoint"/>
                        <mxPoint x="4180" y="320" as="targetPoint"/>
                    </mxGeometry>
                </mxCell>
                <mxCell id="432" value="" style="endArrow=classic;html=1;exitX=0.459;exitY=1.017;exitDx=0;exitDy=0;exitPerimeter=0;entryX=0.278;entryY=0.093;entryDx=0;entryDy=0;entryPerimeter=0;" parent="1" source="418" target="404" edge="1">
                    <mxGeometry width="50" height="50" relative="1" as="geometry">
                        <mxPoint x="4310" y="-20" as="sourcePoint"/>
                        <mxPoint x="4320" y="-100" as="targetPoint"/>
                    </mxGeometry>
                </mxCell>
                <mxCell id="434" value="" style="endArrow=classic;html=1;entryX=0.153;entryY=0.961;entryDx=0;entryDy=0;entryPerimeter=0;exitX=0.442;exitY=0.947;exitDx=0;exitDy=0;exitPerimeter=0;" parent="1" source="404" target="402" edge="1">
                    <mxGeometry width="50" height="50" relative="1" as="geometry">
                        <mxPoint x="4330" y="-10" as="sourcePoint"/>
                        <mxPoint x="3870" y="-350" as="targetPoint"/>
                        <Array as="points">
                            <mxPoint x="3280" y="40"/>
                            <mxPoint x="3280" y="-280"/>
                        </Array>
                    </mxGeometry>
                </mxCell>
                <mxCell id="435" value="" style="endArrow=classic;html=1;exitX=0.209;exitY=0.072;exitDx=0;exitDy=0;exitPerimeter=0;entryX=0.476;entryY=1.033;entryDx=0;entryDy=0;entryPerimeter=0;" parent="1" source="402" target="403" edge="1">
                    <mxGeometry width="50" height="50" relative="1" as="geometry">
                        <mxPoint x="4320" y="-500" as="sourcePoint"/>
                        <mxPoint x="4370" y="-550" as="targetPoint"/>
                    </mxGeometry>
                </mxCell>
                <mxCell id="436" value="" style="endArrow=classic;html=1;exitX=0.277;exitY=0.094;exitDx=0;exitDy=0;exitPerimeter=0;entryX=0.338;entryY=1.017;entryDx=0;entryDy=0;entryPerimeter=0;" parent="1" source="402" target="405" edge="1">
                    <mxGeometry width="50" height="50" relative="1" as="geometry">
                        <mxPoint x="4720" y="-350" as="sourcePoint"/>
                        <mxPoint x="4770" y="-400" as="targetPoint"/>
                        <Array as="points">
                            <mxPoint x="4180" y="-470"/>
                            <mxPoint x="3760" y="-470"/>
                            <mxPoint x="3760" y="-590"/>
                        </Array>
                    </mxGeometry>
                </mxCell>
                <mxCell id="438" value="" style="endArrow=classic;html=1;exitX=0.395;exitY=0.06;exitDx=0;exitDy=0;exitPerimeter=0;entryX=0.25;entryY=0;entryDx=0;entryDy=0;" parent="1" source="397" target="404" edge="1">
                    <mxGeometry width="50" height="50" relative="1" as="geometry">
                        <mxPoint x="4350" y="600" as="sourcePoint"/>
                        <mxPoint x="4070" y="-90" as="targetPoint"/>
                        <Array as="points">
                            <mxPoint x="2860" y="650"/>
                            <mxPoint x="2910" y="-110"/>
                            <mxPoint x="3740" y="-130"/>
                        </Array>
                    </mxGeometry>
                </mxCell>
                <mxCell id="439" value="" style="endArrow=classic;html=1;exitX=0.357;exitY=0.972;exitDx=0;exitDy=0;exitPerimeter=0;entryX=0.336;entryY=-0.048;entryDx=0;entryDy=0;entryPerimeter=0;" parent="1" source="413" target="405" edge="1">
                    <mxGeometry width="50" height="50" relative="1" as="geometry">
                        <mxPoint x="4450" y="-830" as="sourcePoint"/>
                        <mxPoint x="4500" y="-880" as="targetPoint"/>
                    </mxGeometry>
                </mxCell>
                <mxCell id="440" value="" style="endArrow=classic;html=1;entryX=0.273;entryY=0.95;entryDx=0;entryDy=0;entryPerimeter=0;exitX=0.285;exitY=0.025;exitDx=0;exitDy=0;exitPerimeter=0;" parent="1" source="414" target="413" edge="1">
                    <mxGeometry width="50" height="50" relative="1" as="geometry">
                        <mxPoint x="3610" y="90" as="sourcePoint"/>
                        <mxPoint x="4200" y="-290" as="targetPoint"/>
                        <Array as="points">
                            <mxPoint x="3050" y="40"/>
                            <mxPoint x="3050" y="-720"/>
                            <mxPoint x="4180" y="-750"/>
                        </Array>
                    </mxGeometry>
                </mxCell>
                <mxCell id="442" value="Category ( Id , Name , Created At , Updated At )" style="rounded=0;whiteSpace=wrap;html=1;textShadow=1;fontSize=18;" parent="1" vertex="1">
                    <mxGeometry x="4050" y="-980" width="860" height="50" as="geometry"/>
                </mxCell>
                <mxCell id="443" value="" style="endArrow=classic;html=1;exitX=0.362;exitY=0.061;exitDx=0;exitDy=0;exitPerimeter=0;entryX=0.386;entryY=0.913;entryDx=0;entryDy=0;entryPerimeter=0;" parent="1" source="413" target="442" edge="1">
                    <mxGeometry width="50" height="50" relative="1" as="geometry">
                        <mxPoint x="4500" y="-950" as="sourcePoint"/>
                        <mxPoint x="4550" y="-1000" as="targetPoint"/>
                    </mxGeometry>
                </mxCell>
                <mxCell id="444" value="" style="endArrow=classic;html=1;exitX=0.372;exitY=1.007;exitDx=0;exitDy=0;exitPerimeter=0;entryX=0.228;entryY=0.925;entryDx=0;entryDy=0;entryPerimeter=0;" parent="1" source="427" target="414" edge="1">
                    <mxGeometry width="50" height="50" relative="1" as="geometry">
                        <mxPoint x="3960" y="-340" as="sourcePoint"/>
                        <mxPoint x="3640" y="240" as="targetPoint"/>
                        <Array as="points">
                            <mxPoint x="2650" y="-920"/>
                            <mxPoint x="2820" y="270"/>
                            <mxPoint x="3470" y="280"/>
                        </Array>
                    </mxGeometry>
                </mxCell>
                <mxCell id="445" value="" style="endArrow=classic;html=1;exitX=0.342;exitY=0.992;exitDx=0;exitDy=0;exitPerimeter=0;entryX=0.353;entryY=0.955;entryDx=0;entryDy=0;entryPerimeter=0;" parent="1" source="414" target="417" edge="1">
                    <mxGeometry width="50" height="50" relative="1" as="geometry">
                        <mxPoint x="4420" y="-340" as="sourcePoint"/>
                        <mxPoint x="4470" y="-390" as="targetPoint"/>
                        <Array as="points">
                            <mxPoint x="4290" y="270"/>
                            <mxPoint x="5990" y="210"/>
                            <mxPoint x="5920" y="-1150"/>
                            <mxPoint x="4242" y="-1170"/>
                        </Array>
                    </mxGeometry>
                </mxCell>
                <mxCell id="446" value="" style="endArrow=classic;html=1;exitX=0.5;exitY=1;exitDx=0;exitDy=0;entryX=0.399;entryY=0.102;entryDx=0;entryDy=0;entryPerimeter=0;" parent="1" source="427" target="418" edge="1">
                    <mxGeometry width="50" height="50" relative="1" as="geometry">
                        <mxPoint x="4390" y="-790" as="sourcePoint"/>
                        <mxPoint x="4440" y="-840" as="targetPoint"/>
                        <Array as="points">
                            <mxPoint x="5640" y="-970"/>
                            <mxPoint x="5780" y="-290"/>
                        </Array>
                    </mxGeometry>
                </mxCell>
                <mxCell id="454" value="" style="endArrow=classic;html=1;exitX=0.394;exitY=0.025;exitDx=0;exitDy=0;exitPerimeter=0;entryX=0.396;entryY=1.012;entryDx=0;entryDy=0;entryPerimeter=0;" parent="1" source="414" target="420" edge="1">
                    <mxGeometry width="50" height="50" relative="1" as="geometry">
                        <mxPoint x="4430" y="-440" as="sourcePoint"/>
                        <mxPoint x="4290" y="-1340" as="targetPoint"/>
                        <Array as="points">
                            <mxPoint x="3950" y="40"/>
                            <mxPoint x="4700" y="30"/>
                            <mxPoint x="5830" y="-130"/>
                            <mxPoint x="5670" y="-1490"/>
                        </Array>
                    </mxGeometry>
                </mxCell>
                <mxCell id="455" value="" style="endArrow=classic;html=1;entryX=0.399;entryY=1.045;entryDx=0;entryDy=0;entryPerimeter=0;exitX=0.433;exitY=0.026;exitDx=0;exitDy=0;exitPerimeter=0;" parent="1" source="414" target="421" edge="1">
                    <mxGeometry width="50" height="50" relative="1" as="geometry">
                        <mxPoint x="4630" y="-900" as="sourcePoint"/>
                        <mxPoint x="4680" y="-950" as="targetPoint"/>
                        <Array as="points">
                            <mxPoint x="4010" y="60"/>
                            <mxPoint x="5870" y="30"/>
                            <mxPoint x="5760" y="-1310"/>
                            <mxPoint x="4287" y="-1340"/>
                        </Array>
                    </mxGeometry>
                </mxCell>
                <mxCell id="456" value="" style="endArrow=classic;html=1;exitX=0.554;exitY=0.147;exitDx=0;exitDy=0;exitPerimeter=0;" parent="1" source="404" edge="1">
                    <mxGeometry width="50" height="50" relative="1" as="geometry">
                        <mxPoint x="4490" y="-860" as="sourcePoint"/>
                        <mxPoint x="4310" y="-1729" as="targetPoint"/>
                        <Array as="points">
                            <mxPoint x="6560" y="-220"/>
                            <mxPoint x="6070" y="-1680"/>
                            <mxPoint x="4340" y="-1680"/>
                        </Array>
                    </mxGeometry>
                </mxCell>
                <mxCell id="458" value="" style="endArrow=classic;html=1;exitX=0.48;exitY=0.057;exitDx=0;exitDy=0;exitPerimeter=0;entryX=0.399;entryY=1.006;entryDx=0;entryDy=0;entryPerimeter=0;" parent="1" source="412" target="411" edge="1">
                    <mxGeometry width="50" height="50" relative="1" as="geometry">
                        <mxPoint x="4510" y="-1740" as="sourcePoint"/>
                        <mxPoint x="4560" y="-1790" as="targetPoint"/>
                    </mxGeometry>
                </mxCell>
                <mxCell id="459" value="" style="endArrow=classic;html=1;exitX=0.46;exitY=-0.083;exitDx=0;exitDy=0;exitPerimeter=0;entryX=0.386;entryY=0.983;entryDx=0;entryDy=0;entryPerimeter=0;" parent="1" source="411" target="410" edge="1">
                    <mxGeometry width="50" height="50" relative="1" as="geometry">
                        <mxPoint x="4340" y="-2080" as="sourcePoint"/>
                        <mxPoint x="4390" y="-2130" as="targetPoint"/>
                    </mxGeometry>
                </mxCell>
                <mxCell id="460" value="" style="endArrow=classic;html=1;exitX=0.456;exitY=0.072;exitDx=0;exitDy=0;exitPerimeter=0;entryX=0.466;entryY=1.017;entryDx=0;entryDy=0;entryPerimeter=0;" parent="1" source="410" target="408" edge="1">
                    <mxGeometry width="50" height="50" relative="1" as="geometry">
                        <mxPoint x="4460" y="-2130" as="sourcePoint"/>
                        <mxPoint x="4510" y="-2180" as="targetPoint"/>
                    </mxGeometry>
                </mxCell>
                <mxCell id="461" value="" style="endArrow=classic;html=1;exitX=0.677;exitY=1.043;exitDx=0;exitDy=0;exitPerimeter=0;entryX=0.25;entryY=1;entryDx=0;entryDy=0;" parent="1" source="415" target="414" edge="1">
                    <mxGeometry width="50" height="50" relative="1" as="geometry">
                        <mxPoint x="4590" y="-1760" as="sourcePoint"/>
                        <mxPoint x="5430" y="-510" as="targetPoint"/>
                        <Array as="points">
                            <mxPoint x="5880" y="-2000"/>
                            <mxPoint x="6490" y="330"/>
                            <mxPoint x="4580" y="370"/>
                        </Array>
                    </mxGeometry>
                </mxCell>
                <mxCell id="463" value="&lt;span style=&quot;color: rgb(0, 0, 0); font-family: Aptos, &amp;quot;Segoe UI&amp;quot;, &amp;quot;Helvetica Neue&amp;quot;, sans-serif; font-size: 34px; text-align: left; white-space-collapse: preserve;&quot;&gt;Company_Plateform ( ComapnyId, PlateformId )&lt;/span&gt;" style="whiteSpace=wrap;html=1;" parent="1" vertex="1">
                    <mxGeometry x="3400" y="-2580" width="2220" height="60" as="geometry"/>
                </mxCell>
                <mxCell id="464" value="" style="endArrow=classic;html=1;exitX=0.62;exitY=0.058;exitDx=0;exitDy=0;exitPerimeter=0;entryX=0.385;entryY=0.947;entryDx=0;entryDy=0;entryPerimeter=0;" parent="1" source="463" target="406" edge="1">
                    <mxGeometry width="50" height="50" relative="1" as="geometry">
                        <mxPoint x="4530" y="-2590" as="sourcePoint"/>
                        <mxPoint x="4580" y="-2640" as="targetPoint"/>
                    </mxGeometry>
                </mxCell>
                <mxCell id="465" value="" style="endArrow=classic;html=1;exitX=0.544;exitY=1.017;exitDx=0;exitDy=0;exitPerimeter=0;entryX=0.346;entryY=0.183;entryDx=0;entryDy=0;entryPerimeter=0;" parent="1" source="463" target="405" edge="1">
                    <mxGeometry width="50" height="50" relative="1" as="geometry">
                        <mxPoint x="4660" y="-2110" as="sourcePoint"/>
                        <mxPoint x="5750" y="-2320" as="targetPoint"/>
                        <Array as="points">
                            <mxPoint x="5480" y="-2400"/>
                            <mxPoint x="5630" y="-610"/>
                        </Array>
                    </mxGeometry>
                </mxCell>
                <mxCell id="466" value="&lt;span style=&quot;color: rgb(0, 0, 0); font-family: Aptos, &amp;quot;Segoe UI&amp;quot;, &amp;quot;Helvetica Neue&amp;quot;, sans-serif; font-size: 34px; text-align: left; white-space-collapse: preserve;&quot;&gt;Company_Customer( Id , Customer Id, Company Id, ApiKey)&lt;/span&gt;" style="whiteSpace=wrap;html=1;" vertex="1" parent="1">
                    <mxGeometry x="3120" y="585" width="2220" height="60" as="geometry"/>
                </mxCell>
                <mxCell id="468" value="" style="endArrow=classic;html=1;exitX=0.5;exitY=0;exitDx=0;exitDy=0;entryX=0.274;entryY=0.04;entryDx=0;entryDy=0;entryPerimeter=0;" edge="1" parent="1" source="466" target="404">
                    <mxGeometry width="50" height="50" relative="1" as="geometry">
                        <mxPoint x="4120" y="-250" as="sourcePoint"/>
                        <mxPoint x="4170" y="-300" as="targetPoint"/>
                        <Array as="points">
                            <mxPoint x="2780" y="510"/>
                            <mxPoint x="2640" y="-140"/>
                            <mxPoint x="3810" y="-160"/>
                        </Array>
                    </mxGeometry>
                </mxCell>
                <mxCell id="469" value="" style="endArrow=classic;html=1;exitX=0.61;exitY=0.05;exitDx=0;exitDy=0;exitPerimeter=0;entryX=0.323;entryY=0.02;entryDx=0;entryDy=0;entryPerimeter=0;" edge="1" parent="1" source="466" target="405">
                    <mxGeometry width="50" height="50" relative="1" as="geometry">
                        <mxPoint x="4120" y="-250" as="sourcePoint"/>
                        <mxPoint x="4300" y="-440" as="targetPoint"/>
                        <Array as="points">
                            <mxPoint x="6090" y="490"/>
                            <mxPoint x="6090" y="-790"/>
                        </Array>
                    </mxGeometry>
                </mxCell>
            </root>
        </mxGraphModel>
    </diagram>
</mxfile>